<svg xmlns="http://www.w3.org/2000/svg" width="240cm" height="120cm" viewBox="0 0 60 30" shape-rendering="crispEdges">
  <title>city island — reference palette</title>
  <desc>Improved front-elevation pixel art on a 60 by 30 grid. Each unit represents 4 cm.</desc>
  <g fill="#151825">
    <rect x="28" y="6" width="5" height="1"/>
    <rect x="25" y="8" width="3" height="1"/>
    <rect x="34" y="8" width="2" height="1"/>
    <rect x="27" y="9" width="1" height="1"/>
    <rect x="34" y="9" width="1" height="1"/>
    <rect x="27" y="10" width="1" height="1"/>
    <rect x="34" y="10" width="1" height="1"/>
    <rect x="8" y="11" width="1" height="1"/>
    <rect x="27" y="11" width="1" height="1"/>
    <rect x="34" y="11" width="1" height="1"/>
    <rect x="8" y="12" width="1" height="1"/>
    <rect x="27" y="12" width="1" height="1"/>
    <rect x="34" y="12" width="1" height="1"/>
    <rect x="8" y="13" width="1" height="1"/>
    <rect x="27" y="13" width="1" height="1"/>
    <rect x="34" y="13" width="1" height="1"/>
    <rect x="8" y="14" width="1" height="1"/>
    <rect x="19" y="14" width="1" height="1"/>
    <rect x="27" y="14" width="1" height="1"/>
    <rect x="34" y="14" width="1" height="1"/>
    <rect x="8" y="15" width="1" height="1"/>
    <rect x="19" y="15" width="1" height="1"/>
    <rect x="25" y="15" width="1" height="1"/>
    <rect x="36" y="15" width="2" height="1"/>
    <rect x="8" y="16" width="1" height="1"/>
    <rect x="19" y="16" width="1" height="1"/>
    <rect x="25" y="16" width="2" height="1"/>
    <rect x="35" y="16" width="3" height="1"/>
    <rect x="8" y="17" width="1" height="1"/>
    <rect x="37" y="17" width="1" height="1"/>
    <rect x="8" y="18" width="1" height="1"/>
    <rect x="16" y="18" width="1" height="1"/>
    <rect x="37" y="18" width="1" height="1"/>
    <rect x="8" y="19" width="1" height="1"/>
    <rect x="16" y="19" width="1" height="1"/>
    <rect x="37" y="19" width="1" height="1"/>
    <rect x="8" y="20" width="1" height="1"/>
    <rect x="16" y="20" width="1" height="1"/>
    <rect x="37" y="20" width="1" height="1"/>
    <rect x="8" y="21" width="1" height="1"/>
    <rect x="16" y="21" width="1" height="1"/>
    <rect x="37" y="21" width="1" height="1"/>
    <rect x="4" y="22" width="1" height="1"/>
    <rect x="55" y="22" width="1" height="1"/>
    <rect x="9" y="23" width="2" height="1"/>
    <rect x="20" y="23" width="2" height="1"/>
    <rect x="31" y="23" width="2" height="1"/>
    <rect x="42" y="23" width="2" height="1"/>
    <rect x="53" y="23" width="2" height="1"/>
    <rect x="9" y="24" width="2" height="1"/>
    <rect x="20" y="24" width="2" height="1"/>
    <rect x="31" y="24" width="2" height="1"/>
    <rect x="42" y="24" width="2" height="1"/>
    <rect x="53" y="24" width="2" height="1"/>
    <rect x="7" y="25" width="9" height="1"/>
    <rect x="19" y="25" width="8" height="1"/>
    <rect x="30" y="25" width="8" height="1"/>
    <rect x="41" y="25" width="9" height="1"/>
  </g>
  <g fill="#2C2F39">
    <rect x="25" y="7" width="3" height="1"/>
    <rect x="33" y="7" width="3" height="1"/>
    <rect x="9" y="10" width="10" height="1"/>
    <rect x="9" y="11" width="1" height="1"/>
    <rect x="18" y="11" width="1" height="1"/>
    <rect x="9" y="12" width="1" height="1"/>
    <rect x="18" y="12" width="1" height="1"/>
    <rect x="9" y="13" width="1" height="1"/>
    <rect x="18" y="13" width="1" height="1"/>
    <rect x="20" y="13" width="2" height="1"/>
    <rect x="9" y="14" width="1" height="1"/>
    <rect x="18" y="14" width="1" height="1"/>
    <rect x="20" y="14" width="1" height="1"/>
    <rect x="38" y="14" width="1" height="1"/>
    <rect x="9" y="15" width="1" height="1"/>
    <rect x="18" y="15" width="1" height="1"/>
    <rect x="20" y="15" width="1" height="1"/>
    <rect x="38" y="15" width="1" height="1"/>
    <rect x="9" y="16" width="1" height="1"/>
    <rect x="18" y="16" width="1" height="1"/>
    <rect x="20" y="16" width="1" height="1"/>
    <rect x="38" y="16" width="1" height="1"/>
    <rect x="43" y="16" width="1" height="1"/>
    <rect x="9" y="17" width="1" height="1"/>
    <rect x="20" y="17" width="1" height="1"/>
    <rect x="38" y="17" width="1" height="1"/>
    <rect x="43" y="17" width="1" height="1"/>
    <rect x="9" y="18" width="1" height="1"/>
    <rect x="20" y="18" width="1" height="1"/>
    <rect x="27" y="18" width="1" height="1"/>
    <rect x="38" y="18" width="1" height="1"/>
    <rect x="43" y="18" width="1" height="1"/>
    <rect x="9" y="19" width="1" height="1"/>
    <rect x="20" y="19" width="1" height="1"/>
    <rect x="27" y="19" width="1" height="1"/>
    <rect x="38" y="19" width="1" height="1"/>
    <rect x="43" y="19" width="1" height="1"/>
    <rect x="9" y="20" width="1" height="1"/>
    <rect x="20" y="20" width="1" height="1"/>
    <rect x="27" y="20" width="1" height="1"/>
    <rect x="38" y="20" width="1" height="1"/>
    <rect x="43" y="20" width="1" height="1"/>
    <rect x="9" y="21" width="1" height="1"/>
    <rect x="20" y="21" width="1" height="1"/>
    <rect x="27" y="21" width="1" height="1"/>
    <rect x="38" y="21" width="1" height="1"/>
    <rect x="43" y="21" width="2" height="1"/>
    <rect x="3" y="23" width="1" height="1"/>
    <rect x="3" y="24" width="2" height="1"/>
    <rect x="55" y="24" width="2" height="1"/>
    <rect x="12" y="27" width="4" height="1"/>
    <rect x="23" y="27" width="4" height="1"/>
    <rect x="34" y="27" width="4" height="1"/>
    <rect x="45" y="27" width="4" height="1"/>
  </g>
  <g fill="#233D73">
    <rect x="27" y="3" width="1" height="1"/>
    <rect x="34" y="3" width="1" height="1"/>
    <rect x="27" y="4" width="1" height="1"/>
    <rect x="34" y="4" width="1" height="1"/>
    <rect x="27" y="5" width="1" height="1"/>
    <rect x="34" y="5" width="1" height="1"/>
    <rect x="28" y="8" width="6" height="1"/>
    <rect x="28" y="9" width="1" height="1"/>
    <rect x="33" y="9" width="1" height="1"/>
    <rect x="28" y="10" width="1" height="1"/>
    <rect x="33" y="10" width="1" height="1"/>
    <rect x="10" y="11" width="1" height="1"/>
    <rect x="17" y="11" width="1" height="1"/>
    <rect x="28" y="11" width="1" height="1"/>
    <rect x="33" y="11" width="1" height="1"/>
    <rect x="10" y="12" width="8" height="1"/>
    <rect x="28" y="12" width="1" height="1"/>
    <rect x="33" y="12" width="1" height="1"/>
    <rect x="10" y="13" width="1" height="1"/>
    <rect x="17" y="13" width="1" height="1"/>
    <rect x="28" y="13" width="1" height="1"/>
    <rect x="33" y="13" width="1" height="1"/>
    <rect x="10" y="14" width="1" height="1"/>
    <rect x="17" y="14" width="1" height="1"/>
    <rect x="28" y="14" width="1" height="1"/>
    <rect x="33" y="14" width="1" height="1"/>
    <rect x="10" y="15" width="8" height="1"/>
    <rect x="10" y="16" width="1" height="1"/>
    <rect x="17" y="16" width="1" height="1"/>
    <rect x="10" y="17" width="10" height="1"/>
    <rect x="10" y="18" width="1" height="1"/>
    <rect x="17" y="18" width="1" height="1"/>
    <rect x="10" y="19" width="6" height="1"/>
    <rect x="17" y="19" width="1" height="1"/>
    <rect x="34" y="19" width="2" height="1"/>
    <rect x="10" y="20" width="1" height="1"/>
    <rect x="17" y="20" width="1" height="1"/>
    <rect x="34" y="20" width="2" height="1"/>
    <rect x="10" y="21" width="6" height="1"/>
    <rect x="17" y="21" width="1" height="1"/>
    <rect x="34" y="21" width="2" height="1"/>
    <rect x="5" y="24" width="4" height="1"/>
    <rect x="11" y="24" width="2" height="1"/>
    <rect x="14" y="24" width="6" height="1"/>
    <rect x="22" y="24" width="2" height="1"/>
    <rect x="25" y="24" width="6" height="1"/>
    <rect x="33" y="24" width="2" height="1"/>
    <rect x="36" y="24" width="6" height="1"/>
    <rect x="44" y="24" width="2" height="1"/>
    <rect x="47" y="24" width="6" height="1"/>
    <rect x="9" y="26" width="4" height="1"/>
    <rect x="14" y="26" width="1" height="1"/>
    <rect x="21" y="26" width="3" height="1"/>
    <rect x="25" y="26" width="1" height="1"/>
    <rect x="32" y="26" width="3" height="1"/>
    <rect x="36" y="26" width="1" height="1"/>
    <rect x="43" y="26" width="3" height="1"/>
    <rect x="47" y="26" width="2" height="1"/>
  </g>
  <g fill="#3F82B8">
    <rect x="29" y="7" width="3" height="1"/>
    <rect x="9" y="9" width="2" height="1"/>
    <rect x="17" y="9" width="2" height="1"/>
    <rect x="21" y="14" width="6" height="1"/>
    <rect x="21" y="15" width="1" height="1"/>
    <rect x="39" y="15" width="4" height="1"/>
    <rect x="21" y="16" width="4" height="1"/>
    <rect x="27" y="16" width="2" height="1"/>
    <rect x="33" y="16" width="2" height="1"/>
    <rect x="21" y="17" width="1" height="1"/>
    <rect x="27" y="17" width="8" height="1"/>
    <rect x="39" y="17" width="4" height="1"/>
    <rect x="21" y="18" width="6" height="1"/>
    <rect x="28" y="18" width="6" height="1"/>
    <rect x="21" y="19" width="1" height="1"/>
    <rect x="28" y="19" width="1" height="1"/>
    <rect x="33" y="19" width="1" height="1"/>
    <rect x="36" y="19" width="1" height="1"/>
    <rect x="39" y="19" width="4" height="1"/>
    <rect x="21" y="20" width="6" height="1"/>
    <rect x="28" y="20" width="1" height="1"/>
    <rect x="33" y="20" width="1" height="1"/>
    <rect x="39" y="20" width="2" height="1"/>
    <rect x="42" y="20" width="1" height="1"/>
    <rect x="21" y="21" width="6" height="1"/>
    <rect x="28" y="21" width="1" height="1"/>
    <rect x="33" y="21" width="1" height="1"/>
    <rect x="39" y="21" width="4" height="1"/>
    <rect x="4" y="23" width="1" height="1"/>
    <rect x="13" y="23" width="3" height="1"/>
    <rect x="24" y="23" width="3" height="1"/>
    <rect x="35" y="23" width="3" height="1"/>
    <rect x="46" y="23" width="3" height="1"/>
  </g>
  <g fill="#68AEC6">
    <rect x="29" y="3" width="1" height="1"/>
    <rect x="33" y="4" width="1" height="1"/>
    <rect x="24" y="7" width="1" height="1"/>
    <rect x="36" y="7" width="1" height="1"/>
    <rect x="29" y="9" width="1" height="1"/>
    <rect x="32" y="9" width="1" height="1"/>
    <rect x="29" y="10" width="1" height="1"/>
    <rect x="32" y="10" width="1" height="1"/>
    <rect x="11" y="13" width="6" height="1"/>
    <rect x="29" y="13" width="1" height="1"/>
    <rect x="32" y="13" width="1" height="1"/>
    <rect x="11" y="14" width="6" height="1"/>
    <rect x="29" y="14" width="1" height="1"/>
    <rect x="32" y="14" width="1" height="1"/>
    <rect x="18" y="18" width="2" height="2"/>
    <rect x="29" y="19" width="4" height="1"/>
    <rect x="19" y="20" width="1" height="1"/>
    <rect x="29" y="20" width="1" height="1"/>
    <rect x="32" y="20" width="1" height="1"/>
    <rect x="18" y="21" width="2" height="1"/>
    <rect x="29" y="21" width="1" height="1"/>
    <rect x="32" y="21" width="1" height="1"/>
  </g>
  <g fill="#E8D9BA">
    <rect x="30" y="2" width="1" height="4"/>
    <rect x="25" y="6" width="3" height="1"/>
    <rect x="33" y="6" width="3" height="1"/>
    <rect x="11" y="9" width="6" height="1"/>
    <rect x="30" y="9" width="2" height="2"/>
    <rect x="11" y="11" width="6" height="1"/>
    <rect x="22" y="13" width="5" height="1"/>
    <rect x="30" y="13" width="2" height="2"/>
    <rect x="39" y="14" width="3" height="1"/>
    <rect x="26" y="15" width="10" height="1"/>
    <rect x="5" y="22" width="50" height="1"/>
  </g>
  <g fill="#0F6670">
    <rect x="30" y="12" width="1" height="1"/>
    <rect x="22" y="17" width="5" height="1"/>
    <rect x="11" y="18" width="5" height="1"/>
    <rect x="39" y="18" width="4" height="1"/>
    <rect x="30" y="20" width="1" height="1"/>
    <rect x="30" y="21" width="2" height="1"/>
  </g>
  <g fill="#41B7C5">
    <rect x="29" y="11" width="4" height="1"/>
    <rect x="29" y="12" width="1" height="1"/>
    <rect x="31" y="12" width="2" height="1"/>
    <rect x="22" y="15" width="3" height="1"/>
    <rect x="11" y="16" width="6" height="1"/>
    <rect x="29" y="16" width="4" height="1"/>
    <rect x="39" y="16" width="4" height="1"/>
    <rect x="22" y="19" width="5" height="1"/>
    <rect x="11" y="20" width="5" height="1"/>
    <rect x="31" y="20" width="1" height="1"/>
    <rect x="5" y="23" width="4" height="1"/>
    <rect x="11" y="23" width="2" height="1"/>
    <rect x="16" y="23" width="4" height="1"/>
    <rect x="22" y="23" width="2" height="1"/>
    <rect x="27" y="23" width="4" height="1"/>
    <rect x="33" y="23" width="2" height="1"/>
    <rect x="38" y="23" width="4" height="1"/>
    <rect x="44" y="23" width="2" height="1"/>
    <rect x="49" y="23" width="4" height="1"/>
    <rect x="55" y="23" width="2" height="1"/>
    <rect x="13" y="26" width="1" height="1"/>
    <rect x="24" y="26" width="1" height="1"/>
    <rect x="35" y="26" width="1" height="1"/>
    <rect x="46" y="26" width="1" height="1"/>
  </g>
  <g fill="#31571F">
    <rect x="46" y="10" width="1" height="1"/>
    <rect x="44" y="11" width="10" height="1"/>
    <rect x="43" y="12" width="1" height="1"/>
    <rect x="50" y="12" width="1" height="1"/>
    <rect x="42" y="13" width="3" height="1"/>
    <rect x="50" y="13" width="1" height="1"/>
    <rect x="55" y="13" width="1" height="1"/>
    <rect x="47" y="14" width="3" height="1"/>
    <rect x="53" y="14" width="3" height="1"/>
    <rect x="44" y="16" width="1" height="1"/>
    <rect x="46" y="16" width="2" height="1"/>
    <rect x="50" y="16" width="3" height="1"/>
    <rect x="44" y="19" width="1" height="1"/>
    <rect x="46" y="19" width="1" height="1"/>
    <rect x="52" y="19" width="3" height="1"/>
    <rect x="44" y="20" width="3" height="1"/>
    <rect x="52" y="20" width="1" height="1"/>
    <rect x="54" y="20" width="1" height="1"/>
  </g>
  <g fill="#75AC32">
    <rect x="48" y="9" width="5" height="2"/>
    <rect x="45" y="12" width="5" height="1"/>
    <rect x="51" y="12" width="4" height="1"/>
    <rect x="45" y="13" width="1" height="1"/>
    <rect x="47" y="13" width="3" height="1"/>
    <rect x="51" y="13" width="3" height="1"/>
    <rect x="43" y="14" width="4" height="1"/>
    <rect x="43" y="15" width="3" height="1"/>
    <rect x="50" y="15" width="4" height="1"/>
    <rect x="45" y="19" width="1" height="1"/>
    <rect x="53" y="20" width="1" height="1"/>
  </g>
  <g fill="#745143">
    <rect x="50" y="14" width="3" height="1"/>
    <rect x="46" y="15" width="4" height="1"/>
    <rect x="48" y="16" width="2" height="2"/>
    <rect x="44" y="18" width="2" height="1"/>
    <rect x="48" y="18" width="2" height="1"/>
    <rect x="47" y="19" width="3" height="1"/>
    <rect x="36" y="20" width="1" height="1"/>
    <rect x="47" y="20" width="4" height="1"/>
    <rect x="36" y="21" width="1" height="1"/>
    <rect x="45" y="21" width="7" height="1"/>
  </g>
  <g fill="#C17B6D">
    <rect x="12" y="8" width="1" height="1"/>
    <rect x="47" y="10" width="1" height="1"/>
    <rect x="44" y="12" width="1" height="1"/>
    <rect x="54" y="13" width="1" height="1"/>
    <rect x="35" y="17" width="2" height="1"/>
    <rect x="34" y="18" width="3" height="1"/>
    <rect x="18" y="20" width="1" height="1"/>
    <rect x="41" y="20" width="1" height="1"/>
    <rect x="13" y="24" width="1" height="1"/>
    <rect x="24" y="24" width="1" height="1"/>
    <rect x="35" y="24" width="1" height="1"/>
    <rect x="46" y="24" width="1" height="1"/>
  </g>
</svg>
