<svg xmlns="http://www.w3.org/2000/svg" width="240cm" height="120cm" viewBox="0 0 48 24" shape-rendering="crispEdges">
  <title>city island — contrast palette</title>
  <desc>Improved front-elevation pixel art on a 48 by 24 grid. Each unit represents 5 cm.</desc>
  <g fill="#121126">
    <rect x="19" y="5" width="1" height="1"/>
    <rect x="27" y="5" width="1" height="1"/>
    <rect x="20" y="6" width="2" height="1"/>
    <rect x="26" y="6" width="1" height="1"/>
    <rect x="21" y="7" width="1" height="1"/>
    <rect x="26" y="7" width="1" height="1"/>
    <rect x="21" y="8" width="1" height="1"/>
    <rect x="26" y="8" width="1" height="1"/>
    <rect x="7" y="9" width="1" height="1"/>
    <rect x="21" y="9" width="1" height="1"/>
    <rect x="26" y="9" width="1" height="1"/>
    <rect x="7" y="10" width="1" height="1"/>
    <rect x="21" y="10" width="1" height="1"/>
    <rect x="26" y="10" width="1" height="1"/>
    <rect x="7" y="11" width="1" height="1"/>
    <rect x="16" y="11" width="1" height="1"/>
    <rect x="19" y="11" width="1" height="1"/>
    <rect x="28" y="11" width="1" height="1"/>
    <rect x="7" y="12" width="1" height="1"/>
    <rect x="16" y="12" width="1" height="1"/>
    <rect x="19" y="12" width="2" height="1"/>
    <rect x="27" y="12" width="2" height="1"/>
    <rect x="7" y="13" width="1" height="1"/>
    <rect x="16" y="13" width="1" height="1"/>
    <rect x="28" y="13" width="1" height="1"/>
    <rect x="7" y="14" width="1" height="1"/>
    <rect x="16" y="14" width="1" height="1"/>
    <rect x="23" y="14" width="1" height="1"/>
    <rect x="28" y="14" width="1" height="1"/>
    <rect x="7" y="15" width="1" height="1"/>
    <rect x="16" y="15" width="1" height="1"/>
    <rect x="23" y="15" width="1" height="1"/>
    <rect x="28" y="15" width="1" height="1"/>
    <rect x="7" y="16" width="1" height="1"/>
    <rect x="16" y="16" width="1" height="1"/>
    <rect x="23" y="16" width="1" height="1"/>
    <rect x="28" y="16" width="1" height="1"/>
    <rect x="4" y="17" width="1" height="1"/>
    <rect x="43" y="17" width="1" height="1"/>
    <rect x="8" y="18" width="2" height="1"/>
    <rect x="17" y="18" width="2" height="1"/>
    <rect x="26" y="18" width="2" height="1"/>
    <rect x="35" y="18" width="2" height="1"/>
    <rect x="42" y="18" width="2" height="1"/>
    <rect x="8" y="19" width="2" height="1"/>
    <rect x="17" y="19" width="2" height="1"/>
    <rect x="26" y="19" width="2" height="1"/>
    <rect x="35" y="19" width="2" height="1"/>
    <rect x="42" y="19" width="2" height="1"/>
    <rect x="7" y="20" width="7" height="1"/>
    <rect x="17" y="20" width="6" height="1"/>
    <rect x="26" y="20" width="6" height="1"/>
    <rect x="35" y="20" width="6" height="1"/>
  </g>
  <g fill="#252455">
    <rect x="21" y="3" width="1" height="2"/>
    <rect x="22" y="6" width="4" height="1"/>
    <rect x="22" y="7" width="1" height="1"/>
    <rect x="25" y="7" width="1" height="1"/>
    <rect x="8" y="8" width="1" height="1"/>
    <rect x="15" y="8" width="1" height="1"/>
    <rect x="22" y="8" width="1" height="1"/>
    <rect x="25" y="8" width="1" height="1"/>
    <rect x="8" y="9" width="1" height="1"/>
    <rect x="15" y="9" width="1" height="1"/>
    <rect x="22" y="9" width="1" height="1"/>
    <rect x="25" y="9" width="1" height="1"/>
    <rect x="8" y="10" width="1" height="1"/>
    <rect x="15" y="10" width="1" height="1"/>
    <rect x="17" y="10" width="1" height="1"/>
    <rect x="22" y="10" width="1" height="1"/>
    <rect x="25" y="10" width="1" height="1"/>
    <rect x="8" y="11" width="1" height="1"/>
    <rect x="15" y="11" width="1" height="1"/>
    <rect x="17" y="11" width="1" height="1"/>
    <rect x="29" y="11" width="1" height="1"/>
    <rect x="8" y="12" width="1" height="1"/>
    <rect x="15" y="12" width="1" height="1"/>
    <rect x="17" y="12" width="1" height="1"/>
    <rect x="29" y="12" width="1" height="1"/>
    <rect x="8" y="13" width="1" height="1"/>
    <rect x="15" y="13" width="1" height="1"/>
    <rect x="17" y="13" width="1" height="1"/>
    <rect x="29" y="13" width="1" height="1"/>
    <rect x="33" y="13" width="1" height="1"/>
    <rect x="8" y="14" width="1" height="1"/>
    <rect x="15" y="14" width="1" height="1"/>
    <rect x="17" y="14" width="1" height="1"/>
    <rect x="22" y="14" width="1" height="1"/>
    <rect x="29" y="14" width="1" height="1"/>
    <rect x="33" y="14" width="1" height="1"/>
    <rect x="8" y="15" width="1" height="1"/>
    <rect x="15" y="15" width="1" height="1"/>
    <rect x="17" y="15" width="1" height="1"/>
    <rect x="22" y="15" width="1" height="1"/>
    <rect x="29" y="15" width="1" height="1"/>
    <rect x="33" y="15" width="1" height="1"/>
    <rect x="8" y="16" width="1" height="1"/>
    <rect x="15" y="16" width="1" height="1"/>
    <rect x="17" y="16" width="1" height="1"/>
    <rect x="22" y="16" width="1" height="1"/>
    <rect x="29" y="16" width="1" height="1"/>
    <rect x="33" y="16" width="3" height="1"/>
    <rect x="3" y="18" width="1" height="1"/>
    <rect x="44" y="18" width="1" height="1"/>
    <rect x="3" y="19" width="5" height="1"/>
    <rect x="10" y="19" width="2" height="1"/>
    <rect x="13" y="19" width="4" height="1"/>
    <rect x="19" y="19" width="2" height="1"/>
    <rect x="22" y="19" width="4" height="1"/>
    <rect x="28" y="19" width="2" height="1"/>
    <rect x="31" y="19" width="4" height="1"/>
    <rect x="37" y="19" width="2" height="1"/>
    <rect x="40" y="19" width="2" height="1"/>
    <rect x="44" y="19" width="1" height="1"/>
    <rect x="10" y="21" width="4" height="1"/>
    <rect x="19" y="21" width="4" height="1"/>
    <rect x="28" y="21" width="4" height="1"/>
    <rect x="37" y="21" width="4" height="1"/>
  </g>
  <g fill="#3B5FA8">
    <rect x="25" y="3" width="1" height="2"/>
    <rect x="19" y="6" width="1" height="1"/>
    <rect x="27" y="6" width="1" height="1"/>
    <rect x="9" y="9" width="6" height="1"/>
    <rect x="9" y="10" width="1" height="1"/>
    <rect x="14" y="10" width="1" height="1"/>
    <rect x="9" y="11" width="1" height="1"/>
    <rect x="14" y="11" width="1" height="1"/>
    <rect x="18" y="11" width="1" height="1"/>
    <rect x="9" y="12" width="6" height="1"/>
    <rect x="21" y="12" width="2" height="1"/>
    <rect x="25" y="12" width="2" height="1"/>
    <rect x="30" y="12" width="2" height="1"/>
    <rect x="9" y="13" width="1" height="1"/>
    <rect x="14" y="13" width="1" height="1"/>
    <rect x="18" y="13" width="9" height="1"/>
    <rect x="9" y="14" width="6" height="1"/>
    <rect x="24" y="14" width="3" height="1"/>
    <rect x="30" y="14" width="3" height="1"/>
    <rect x="9" y="15" width="1" height="1"/>
    <rect x="14" y="15" width="1" height="1"/>
    <rect x="18" y="15" width="4" height="1"/>
    <rect x="24" y="15" width="1" height="1"/>
    <rect x="26" y="15" width="1" height="1"/>
    <rect x="30" y="15" width="1" height="1"/>
    <rect x="32" y="15" width="1" height="1"/>
    <rect x="9" y="16" width="6" height="1"/>
    <rect x="18" y="16" width="1" height="1"/>
    <rect x="20" y="16" width="2" height="1"/>
    <rect x="24" y="16" width="3" height="1"/>
    <rect x="30" y="16" width="3" height="1"/>
    <rect x="4" y="18" width="1" height="1"/>
    <rect x="12" y="18" width="2" height="1"/>
    <rect x="21" y="18" width="2" height="1"/>
    <rect x="30" y="18" width="2" height="1"/>
    <rect x="39" y="18" width="3" height="1"/>
  </g>
  <g fill="#F1DDD0">
    <rect x="23" y="2" width="1" height="3"/>
    <rect x="20" y="5" width="7" height="1"/>
    <rect x="23" y="7" width="2" height="1"/>
    <rect x="9" y="8" width="6" height="1"/>
    <rect x="23" y="8" width="1" height="1"/>
    <rect x="23" y="9" width="2" height="1"/>
    <rect x="18" y="10" width="3" height="1"/>
    <rect x="23" y="10" width="1" height="1"/>
    <rect x="20" y="11" width="8" height="1"/>
    <rect x="30" y="11" width="2" height="1"/>
    <rect x="10" y="15" width="4" height="1"/>
    <rect x="5" y="17" width="38" height="1"/>
  </g>
  <g fill="#41B7C5">
    <rect x="24" y="8" width="1" height="1"/>
    <rect x="10" y="10" width="4" height="1"/>
    <rect x="24" y="10" width="1" height="1"/>
    <rect x="10" y="11" width="4" height="1"/>
    <rect x="18" y="12" width="1" height="1"/>
    <rect x="23" y="12" width="2" height="1"/>
    <rect x="10" y="13" width="4" height="1"/>
    <rect x="30" y="13" width="3" height="1"/>
    <rect x="18" y="14" width="4" height="1"/>
    <rect x="25" y="15" width="1" height="1"/>
    <rect x="5" y="18" width="3" height="1"/>
    <rect x="10" y="18" width="2" height="1"/>
    <rect x="14" y="18" width="3" height="1"/>
    <rect x="19" y="18" width="2" height="1"/>
    <rect x="23" y="18" width="3" height="1"/>
    <rect x="28" y="18" width="2" height="1"/>
    <rect x="32" y="18" width="3" height="1"/>
    <rect x="37" y="18" width="2" height="1"/>
  </g>
  <g fill="#254E38">
    <rect x="35" y="8" width="5" height="1"/>
    <rect x="34" y="9" width="7" height="1"/>
    <rect x="42" y="9" width="1" height="1"/>
    <rect x="33" y="10" width="1" height="1"/>
    <rect x="35" y="10" width="1" height="1"/>
    <rect x="37" y="10" width="5" height="1"/>
    <rect x="32" y="11" width="7" height="1"/>
    <rect x="41" y="11" width="2" height="1"/>
    <rect x="33" y="12" width="3" height="1"/>
    <rect x="39" y="12" width="1" height="1"/>
    <rect x="41" y="12" width="3" height="1"/>
    <rect x="35" y="13" width="2" height="1"/>
    <rect x="39" y="13" width="2" height="1"/>
  </g>
  <g fill="#A97B5B">
    <rect x="39" y="11" width="2" height="1"/>
    <rect x="36" y="12" width="3" height="1"/>
    <rect x="37" y="13" width="2" height="1"/>
    <rect x="34" y="14" width="5" height="1"/>
    <rect x="27" y="15" width="1" height="1"/>
    <rect x="34" y="15" width="6" height="1"/>
    <rect x="27" y="16" width="1" height="1"/>
    <rect x="36" y="16" width="4" height="1"/>
  </g>
  <g fill="#F2AD55">
    <rect x="41" y="9" width="1" height="1"/>
    <rect x="34" y="10" width="1" height="1"/>
    <rect x="43" y="11" width="1" height="1"/>
    <rect x="27" y="13" width="1" height="2"/>
    <rect x="31" y="15" width="1" height="1"/>
    <rect x="19" y="16" width="1" height="1"/>
    <rect x="12" y="19" width="1" height="1"/>
    <rect x="21" y="19" width="1" height="1"/>
    <rect x="30" y="19" width="1" height="1"/>
    <rect x="39" y="19" width="1" height="1"/>
  </g>
</svg>
